<?xml version="1.0" standalone="no"?>
<!DOCTYPE svg PUBLIC "-//W3C//DTD SVG 20010904//EN"
 "http://www.w3.org/TR/2001/REC-SVG-20010904/DTD/svg10.dtd">
<svg version="1.0" xmlns="http://www.w3.org/2000/svg"
 width="2646.000000pt" height="2646.000000pt" viewBox="0 0 2646.000000 2646.000000"
 preserveAspectRatio="xMidYMid meet">
<metadata>
Created by potrace 1.14, written by Peter Selinger 2001-2017
</metadata>
<g transform="translate(0.000000,2646.000000) scale(0.100000,-0.100000)"
fill="#000000" stroke="none">
<path d="M12917 21954 c-1 -1 -81 -5 -177 -9 -96 -3 -191 -8 -210 -10 -19 -1
-75 -6 -125 -10 -101 -7 -164 -13 -215 -20 -19 -2 -60 -7 -90 -10 -65 -7 -204
-24 -240 -30 -14 -2 -56 -9 -95 -15 -38 -6 -82 -13 -97 -15 -16 -3 -43 -7 -60
-10 -18 -3 -40 -8 -48 -10 -8 -2 -31 -6 -50 -9 -19 -3 -91 -17 -160 -32 -69
-14 -134 -28 -145 -30 -17 -3 -111 -25 -170 -39 -11 -3 -72 -19 -135 -36 -63
-17 -122 -32 -130 -34 -196 -45 -875 -287 -1140 -407 -36 -16 -96 -43 -135
-61 -248 -111 -742 -374 -960 -512 -99 -62 -339 -219 -355 -232 -8 -6 -73 -53
-144 -104 -432 -307 -821 -645 -1223 -1064 -514 -533 -935 -1101 -1313 -1770
-84 -149 -266 -510 -335 -665 -26 -58 -55 -123 -65 -145 -69 -155 -198 -495
-272 -720 -115 -349 -247 -865 -293 -1145 -12 -70 11 -65 -277 -68 -145 -1
-364 -5 -488 -7 -124 -2 -317 -4 -429 -4 -112 -1 -202 -3 -200 -6 11 -10 1806
-33 3879 -50 3231 -26 9180 -26 12450 0 679 6 1768 16 2118 20 1387 17 1713
23 1720 30 3 3 -93 5 -214 6 -120 0 -316 2 -434 5 -188 4 -655 11 -867 13 -67
1 -73 3 -77 24 -3 12 -17 85 -31 162 -61 323 -234 968 -286 1067 -5 10 -9 23
-9 30 0 31 -168 466 -268 693 -355 811 -842 1578 -1419 2237 -224 255 -531
566 -758 767 -33 30 -76 68 -95 85 -19 17 -62 54 -95 81 -33 28 -62 52 -65 55
-14 16 -222 179 -345 272 -185 139 -422 301 -580 398 -166 102 -279 170 -280
170 -2 0 -47 25 -101 56 -55 31 -180 98 -279 149 -154 79 -253 126 -544 257
-161 72 -514 204 -746 280 -221 72 -632 184 -775 212 -14 3 -79 17 -145 30
-114 25 -472 87 -580 101 -27 3 -63 8 -80 10 -41 6 -107 13 -185 20 -36 4 -75
8 -86 10 -51 8 -228 20 -449 30 -130 6 -593 13 -598 9z m738 -117 c39 -3 105
-9 148 -12 43 -3 97 -7 120 -9 23 -3 71 -8 107 -11 79 -8 124 -14 170 -20 19
-3 55 -7 80 -10 25 -3 56 -7 70 -10 14 -2 42 -7 63 -10 20 -3 54 -7 75 -10 20
-3 48 -8 62 -10 14 -3 40 -7 59 -10 66 -11 386 -77 471 -97 47 -11 92 -21 100
-23 69 -16 275 -72 383 -104 713 -214 1288 -467 1985 -872 252 -147 700 -458
947 -658 568 -460 1019 -918 1451 -1474 115 -147 158 -207 309 -426 351 -509
671 -1113 894 -1686 35 -88 66 -167 70 -175 4 -8 40 -116 81 -240 40 -124 77
-234 81 -245 9 -23 69 -232 74 -255 2 -8 8 -35 15 -60 12 -43 14 -54 24 -100
3 -11 12 -48 21 -83 9 -34 36 -156 59 -270 l43 -208 -201 3 -201 3 -17 80
c-56 250 -72 321 -99 430 -247 982 -720 1986 -1324 2809 -89 122 -299 389
-354 452 -20 22 -63 72 -96 110 -285 330 -753 780 -1045 1004 -25 19 -47 37
-50 41 -3 3 -77 60 -165 126 -643 483 -1360 873 -2115 1150 -269 99 -721 236
-890 269 -14 3 -43 10 -65 16 -48 12 -40 11 -195 43 -157 32 -471 85 -595 100
-27 3 -59 8 -70 10 -11 2 -58 7 -105 11 -47 3 -87 8 -90 9 -3 2 -48 6 -100 10
-52 4 -111 8 -130 10 -235 23 -829 24 -1165 1 -86 -6 -209 -16 -240 -20 -16
-2 -59 -7 -95 -11 -36 -4 -76 -8 -90 -10 -14 -2 -79 -11 -145 -19 -66 -9 -130
-18 -141 -20 -12 -2 -39 -7 -60 -10 -61 -10 -252 -45 -334 -63 -41 -8 -93 -19
-115 -23 -402 -81 -1117 -317 -1525 -502 -25 -12 -72 -33 -105 -48 -455 -205
-933 -485 -1405 -821 -58 -41 -374 -285 -394 -303 -6 -6 -40 -36 -76 -66 -596
-504 -1156 -1132 -1563 -1752 -77 -119 -227 -358 -227 -363 0 -3 -17 -33 -38
-67 -79 -129 -257 -472 -354 -683 -49 -105 -198 -460 -198 -471 0 -3 -6 -20
-14 -37 -50 -115 -179 -507 -242 -737 -14 -52 -27 -102 -30 -110 -8 -30 -82
-346 -90 -385 -4 -22 -8 -42 -9 -45 -3 -13 -19 -96 -19 -105 -1 -9 -406 -21
-406 -13 0 3 25 130 35 178 2 14 10 50 16 80 6 30 31 138 56 240 24 102 46
192 48 200 2 8 26 94 55 190 195 664 441 1240 805 1885 93 164 273 448 408
640 71 101 267 366 277 375 3 3 23 28 45 55 47 59 240 289 273 325 12 14 55
62 95 107 40 45 173 183 297 305 276 274 421 405 683 616 904 729 1965 1276
3077 1586 143 40 363 96 400 102 14 2 44 9 68 14 89 21 130 30 207 44 107 20
130 24 200 36 33 5 71 12 85 14 108 19 267 41 365 51 33 3 78 8 100 10 112 13
242 23 375 31 63 3 117 7 118 9 6 6 862 -2 937 -8z m-45 -491 c142 -10 246
-19 360 -32 30 -3 69 -7 85 -9 130 -14 189 -21 235 -30 14 -3 42 -7 62 -10 47
-5 87 -12 213 -35 55 -10 114 -21 132 -24 59 -11 257 -55 363 -81 58 -14 113
-28 122 -30 151 -34 558 -164 817 -262 323 -122 760 -324 1031 -476 63 -35
133 -74 155 -87 375 -211 882 -572 1255 -894 169 -146 194 -170 435 -411 203
-203 295 -301 405 -430 23 -27 52 -62 65 -76 143 -164 392 -498 556 -744 104
-157 279 -440 279 -451 0 -3 8 -18 18 -32 52 -75 254 -472 354 -697 157 -354
279 -685 387 -1056 36 -126 98 -362 106 -408 3 -19 8 -38 10 -41 3 -4 7 -25
11 -46 3 -22 12 -64 19 -94 8 -30 15 -73 17 -94 l3 -40 -85 1 c-981 9 -1659
14 -2340 19 -459 3 -893 7 -965 8 l-130 1 -36 105 c-143 417 -345 804 -610
1165 -40 55 -76 102 -79 105 -3 3 -24 27 -45 55 -115 143 -334 369 -490 505
-215 187 -510 389 -751 516 -60 31 -113 60 -119 64 -18 13 -257 121 -360 162
-244 97 -518 179 -795 237 -84 18 -129 26 -245 45 -54 9 -172 26 -226 31 -30
4 -68 8 -84 10 -17 2 -71 7 -120 10 -50 4 -108 9 -130 12 -22 3 -1121 6 -2443
7 l-2403 2 5 -40 c3 -23 5 -52 5 -66 l1 -25 128 -1 c153 -1 268 -22 369 -69
233 -107 402 -299 475 -537 l22 -73 4 -1110 3 -1110 -508 -2 c-613 -1 -1960
-10 -2883 -19 -371 -3 -779 -7 -907 -8 -161 -2 -230 1 -228 8 2 6 16 72 30
146 48 244 141 587 235 870 60 181 156 439 190 515 13 29 35 81 68 160 80 191
266 564 382 765 40 69 83 144 96 167 57 99 231 367 344 527 134 191 376 500
511 651 356 400 667 697 1093 1042 244 198 672 488 991 670 125 72 422 233
430 233 1 0 67 31 147 69 575 275 1245 497 1892 627 37 7 250 44 286 50 19 3
60 9 90 14 30 5 75 12 100 15 25 3 61 7 80 10 19 3 62 7 95 11 33 3 74 8 90
10 17 2 68 6 115 10 47 3 96 8 110 10 14 2 88 7 165 10 77 3 141 8 143 9 5 4
721 -4 792 -9z m-280 -3930 c80 -4 159 -9 175 -11 17 -2 55 -6 85 -10 30 -3
66 -7 80 -10 14 -2 47 -7 75 -10 60 -7 216 -38 305 -60 36 -9 74 -18 85 -20
91 -21 347 -110 485 -169 220 -95 540 -284 700 -413 8 -7 42 -34 75 -60 96
-77 122 -100 261 -238 144 -143 213 -222 326 -371 68 -91 177 -251 204 -299 6
-11 35 -63 66 -115 58 -100 137 -260 195 -395 77 -178 166 -437 153 -445 -4
-3 -70 -4 -147 -3 -76 1 -1443 3 -3039 3 l-2901 1 0 1312 c0 722 1 1314 2
1317 5 8 2652 4 2815 -4z"/>
<path d="M23348 14723 c7 -3 16 -2 19 1 4 3 -2 6 -13 5 -11 0 -14 -3 -6 -6z"/>
<path d="M10259 14130 c-23 -5 -24 -8 -24 -87 0 -45 3 -85 7 -88 6 -7 38 -8
141 -6 l38 1 -3 91 -3 92 -66 1 c-36 1 -76 -1 -90 -4z"/>
<path d="M16199 14130 l-25 -5 1 -755 c1 -738 1 -756 21 -800 28 -61 67 -105
123 -138 44 -26 53 -27 199 -30 l153 -4 -3 93 -3 93 -127 1 c-119 0 -129 2
-150 23 l-23 23 -5 751 -5 751 -66 1 c-36 0 -77 -1 -90 -4z"/>
<path d="M8614 14040 l0 -90 93 0 93 0 0 90 0 90 -93 0 -93 0 0 -90z"/>
<path d="M6750 13210 l0 -810 704 0 c665 0 707 1 748 19 59 25 103 64 136 120
l27 46 3 604 c3 690 5 669 -77 751 -83 83 -48 79 -842 80 l-699 0 0 -810z
m1412 602 l23 -23 0 -579 0 -579 -23 -23 -23 -23 -542 -2 c-298 -2 -561 0
-585 3 -34 4 -47 12 -61 35 -17 28 -19 67 -19 577 0 344 3 559 9 580 19 60 7
59 630 58 l568 -1 23 -23z"/>
<path d="M14402 13209 l0 -809 92 0 91 0 0 300 0 300 45 0 c25 0 304 1 620 2
637 3 603 0 681 71 48 43 75 91 86 152 5 28 8 169 7 315 -1 291 -3 303 -64
379 -17 21 -55 52 -83 67 l-52 29 -711 2 -711 1 -1 -809z m1409 600 c33 -30
31 -6 29 -354 -1 -232 -4 -244 -61 -261 -20 -5 -259 -9 -582 -8 -531 0 -548 1
-574 20 -15 11 -30 31 -33 45 -3 13 -6 137 -5 276 1 250 1 252 24 277 13 14
33 26 45 28 11 2 270 3 575 3 l554 0 28 -26z"/>
<path d="M8615 13053 l0 -653 92 0 93 0 0 653 0 652 -93 0 -92 0 0 -652z"/>
<path d="M9299 13698 c-76 -13 -156 -79 -193 -158 -20 -44 -21 -60 -22 -592
l-1 -548 93 0 94 0 0 535 0 534 27 26 28 25 382 0 383 0 0 93 0 92 -374 0
c-206 0 -393 -3 -417 -7z"/>
<path d="M10238 13690 c-2 -8 -3 -301 -3 -650 l1 -635 92 -3 92 -3 0 653 0
653 -89 0 c-72 0 -91 -3 -93 -15z"/>
<path d="M10709 13695 c0 -5 -1 -251 -1 -545 0 -519 0 -536 20 -582 31 -70 96
-130 163 -151 50 -16 100 -18 505 -15 441 3 450 3 490 25 57 30 122 107 138
162 10 36 13 163 13 581 l1 535 -92 0 -91 0 -1 -533 -1 -534 -27 -26 -26 -27
-413 -1 c-233 0 -424 3 -440 9 -29 10 -59 56 -56 85 1 9 1 244 0 522 l-1 505
-90 0 c-55 1 -90 -3 -91 -10z"/>
<path d="M12455 13699 c-103 -14 -197 -103 -220 -209 -5 -19 -8 -94 -8 -167 1
-160 16 -214 76 -276 83 -84 64 -81 570 -87 l449 -5 24 -28 c23 -27 24 -35 24
-157 0 -122 -1 -130 -24 -157 l-24 -28 -414 -1 c-233 0 -425 3 -441 9 -27 9
-57 52 -57 82 0 12 -15 15 -90 15 l-90 0 0 -39 c0 -82 64 -179 146 -221 l49
-25 470 0 c464 0 471 0 511 22 22 12 57 40 77 62 61 68 70 98 73 264 3 163 -7
218 -50 276 -36 48 -110 98 -159 107 -23 4 -229 8 -457 9 -450 1 -447 1 -471
56 -6 17 -9 74 -7 149 3 119 4 122 31 146 l28 24 418 0 c407 0 419 -1 445 -21
14 -11 29 -35 34 -52 l8 -32 80 -1 c106 -1 106 -1 98 55 -12 91 -74 172 -162
213 -46 21 -56 22 -472 22 -234 1 -443 -1 -465 -5z"/>
<path d="M16859 13685 c-5 -111 0 -1040 5 -1070 16 -87 85 -165 176 -199 40
-15 93 -16 500 -14 445 3 456 3 495 25 55 29 99 75 127 131 l23 47 0 550 0
550 -90 0 -90 0 -2 -520 c-1 -286 -2 -525 -2 -532 -1 -7 -12 -25 -25 -40 l-24
-28 -419 -1 c-449 -1 -464 1 -482 50 -5 12 -9 255 -9 540 0 285 -3 520 -7 524
-3 4 -44 7 -91 7 -78 0 -84 -1 -85 -20z"/>
<path d="M18627 13704 c-1 -1 -16 -4 -33 -7 -78 -12 -158 -78 -195 -161 -19
-43 -22 -68 -22 -185 0 -202 10 -238 88 -315 78 -75 86 -76 572 -76 l425 0 30
-30 30 -30 -4 -135 c-3 -124 -5 -136 -26 -157 l-23 -23 -420 -1 c-473 0 -470
-1 -483 70 l-7 36 -89 0 c-102 0 -104 -3 -84 -82 21 -81 51 -120 136 -175 l43
-28 475 0 c471 0 475 0 516 22 56 30 121 106 138 162 10 32 14 91 13 196 -2
129 -5 156 -23 196 -26 57 -81 111 -142 140 -46 22 -53 22 -477 24 -236 1
-440 5 -453 9 -41 14 -51 52 -49 190 2 126 2 128 30 152 l28 24 419 0 418 0
31 -26 c21 -17 31 -35 31 -53 l0 -27 93 1 92 0 -2 42 c-4 97 -82 197 -176 229
-46 16 -99 18 -475 19 -233 0 -424 0 -425 -1z"/>
<path d="M11647 11804 c-1 -1 -834 -5 -1852 -8 -1017 -4 -2048 -9 -2290 -11
-755 -5 -1996 -16 -2325 -20 -1143 -14 -1355 -17 -1530 -20 -107 -2 -262 -4
-344 -4 -82 -1 -147 -3 -145 -5 5 -5 900 -22 1281 -25 84 -1 81 1 93 -71 12
-72 67 -337 82 -395 8 -33 17 -68 19 -78 44 -228 278 -960 383 -1202 24 -54
41 -96 66 -155 94 -227 287 -620 409 -834 31 -54 56 -100 56 -102 0 -7 181
-301 266 -431 101 -154 260 -379 363 -513 69 -89 231 -291 241 -300 3 -3 25
-30 50 -60 25 -30 63 -75 86 -100 136 -150 175 -192 238 -259 167 -174 410
-409 546 -527 25 -21 47 -41 50 -44 3 -3 34 -30 70 -60 36 -30 67 -57 70 -60
15 -16 269 -217 355 -281 55 -41 102 -76 105 -79 3 -3 50 -37 105 -75 316
-221 592 -391 929 -572 96 -51 463 -233 471 -233 2 0 32 -13 67 -29 302 -139
736 -299 1108 -408 143 -41 381 -105 440 -117 14 -3 57 -12 95 -21 39 -8 79
-17 90 -20 17 -3 224 -44 305 -60 14 -3 43 -7 65 -10 22 -3 51 -7 65 -10 47
-10 75 -14 125 -20 28 -3 59 -7 70 -9 26 -5 96 -14 160 -21 28 -3 73 -8 100
-11 76 -10 192 -20 330 -30 274 -19 772 -24 1025 -10 80 4 174 9 210 11 36 2
88 6 115 9 28 3 82 8 120 11 39 3 124 13 190 21 173 21 198 25 215 29 8 2 40
7 70 10 30 4 114 17 185 30 72 13 141 26 155 28 166 31 549 123 753 183 1044
305 2015 795 2867 1448 124 94 193 150 349 281 37 30 199 173 261 230 104 94
466 460 560 565 52 58 96 107 99 110 4 3 30 34 60 70 30 36 62 73 70 82 9 9
21 23 26 30 6 7 40 49 76 93 76 93 290 377 339 450 19 28 36 52 40 55 10 9
245 372 310 480 312 517 601 1144 789 1707 48 146 111 347 116 372 2 10 12 49
24 87 52 177 149 600 176 772 l7 42 211 1 c117 1 293 2 392 4 733 11 1010 17
1014 21 2 2 -72 4 -165 5 -93 0 -248 2 -344 4 -96 1 -422 6 -725 9 -302 4
-678 9 -835 11 -296 4 -1469 15 -2235 20 -1428 11 -7380 26 -7388 19z m-6608
-140 c6 -23 14 -59 17 -81 49 -315 287 -1111 425 -1420 11 -23 19 -44 19 -47
0 -34 301 -669 406 -856 207 -369 395 -659 628 -970 73 -96 141 -186 153 -200
11 -14 72 -86 134 -160 111 -133 135 -161 254 -290 79 -86 384 -391 460 -460
34 -30 83 -75 110 -100 28 -25 79 -70 115 -100 36 -30 67 -57 70 -61 4 -4 230
-186 290 -232 60 -47 224 -167 320 -233 439 -304 843 -530 1406 -784 172 -78
645 -253 839 -310 33 -10 101 -30 150 -45 199 -59 589 -152 785 -185 30 -6 66
-12 80 -15 25 -5 89 -15 125 -20 11 -2 70 -10 130 -19 123 -18 159 -23 225
-30 108 -12 149 -16 220 -22 41 -3 93 -7 115 -9 268 -25 929 -25 1210 -1 22 2
79 7 127 11 49 3 96 8 105 9 10 2 54 7 97 11 43 4 88 9 100 11 12 2 41 6 66 9
25 3 56 7 70 10 14 2 43 6 65 10 1067 157 2142 550 3074 1123 693 426 1348
978 1871 1577 58 66 107 122 110 125 3 3 25 30 50 60 25 30 47 57 50 60 10 10
77 96 157 200 558 733 992 1556 1275 2415 65 199 139 453 163 565 2 8 18 72
35 142 17 70 33 135 34 145 2 10 12 60 22 111 9 50 22 92 28 93 44 3 382 5
387 2 10 -4 -85 -456 -132 -630 -261 -979 -624 -1792 -1166 -2610 -124 -188
-302 -434 -422 -583 -166 -206 -204 -251 -332 -395 -288 -323 -708 -723 -1019
-970 -41 -33 -80 -64 -86 -70 -25 -22 -50 -41 -84 -65 -19 -13 -37 -27 -40
-30 -14 -17 -295 -216 -440 -312 -91 -60 -170 -112 -175 -116 -23 -19 -340
-204 -488 -286 -426 -235 -1091 -516 -1542 -651 -222 -67 -282 -84 -305 -89
-14 -3 -86 -21 -160 -41 -74 -19 -144 -37 -155 -39 -11 -2 -87 -18 -170 -36
-168 -36 -170 -36 -216 -44 -345 -57 -363 -59 -469 -71 -30 -4 -66 -8 -80 -10
-14 -2 -56 -7 -95 -10 -38 -4 -77 -8 -86 -10 -9 -2 -63 -7 -120 -10 -57 -4
-122 -9 -144 -10 -308 -22 -821 -22 -1130 0 -190 13 -241 17 -254 20 -9 2 -52
6 -96 10 -44 4 -87 9 -96 10 -9 2 -40 6 -70 9 -30 4 -72 9 -94 13 -22 3 -49 7
-60 8 -50 7 -115 17 -170 27 -33 6 -73 12 -90 14 -16 2 -41 6 -55 10 -14 3
-36 8 -50 10 -82 14 -295 60 -420 90 -961 233 -1849 618 -2695 1168 -77 50
-144 94 -150 99 -5 4 -55 40 -110 79 -539 384 -996 791 -1446 1289 -379 418
-770 957 -1054 1454 -115 200 -131 231 -260 490 -336 678 -578 1384 -720 2105
-8 41 -17 86 -20 100 -3 14 -8 40 -11 58 l-6 33 200 -3 201 -3 10 -41z m946
32 c1199 -11 2947 -24 3558 -26 l118 0 -4 -1097 c-1 -604 -6 -1110 -10 -1124
-56 -210 -128 -332 -273 -468 -165 -154 -323 -213 -576 -215 l-148 -1 0 -68 0
-68 2413 4 c1326 2 2437 7 2467 10 49 6 116 12 220 22 19 2 60 6 90 10 30 4
66 8 80 10 121 14 393 65 514 96 45 11 89 22 98 24 93 20 390 115 513 164 710
284 1340 738 1771 1276 27 33 51 62 54 65 3 3 23 30 46 60 202 272 353 528
497 840 36 78 110 270 142 370 15 47 30 87 32 90 2 2 142 5 311 6 844 5 2225
15 2690 20 450 4 522 2 522 -10 0 -13 -18 -96 -67 -316 -8 -36 -16 -73 -18
-83 -22 -101 -153 -551 -191 -652 -4 -11 -8 -24 -10 -30 -7 -27 -97 -272 -132
-360 -135 -338 -306 -697 -474 -995 -14 -25 -35 -63 -48 -85 -126 -223 -422
-669 -565 -850 -17 -22 -67 -85 -110 -140 -69 -87 -219 -269 -250 -301 -5 -6
-35 -40 -65 -75 -137 -159 -603 -613 -774 -754 -26 -22 -56 -47 -65 -56 -35
-34 -322 -259 -441 -345 -256 -185 -599 -405 -840 -536 -147 -81 -200 -108
-335 -176 -614 -306 -1316 -546 -1990 -681 -141 -29 -167 -33 -247 -46 -18 -3
-44 -7 -58 -10 -14 -3 -41 -7 -60 -10 -19 -3 -46 -7 -60 -10 -14 -2 -50 -7
-80 -11 -30 -4 -64 -8 -75 -9 -78 -10 -170 -20 -280 -30 -38 -4 -87 -8 -108
-11 -236 -26 -1026 -26 -1290 1 -23 2 -73 7 -112 10 -38 3 -86 8 -105 10 -197
24 -299 37 -320 40 -14 2 -56 9 -95 15 -459 70 -1041 220 -1490 384 -109 40
-356 138 -420 166 -296 131 -472 217 -695 338 -396 216 -811 491 -1175 780
-66 53 -129 104 -140 113 -11 10 -58 50 -104 89 -252 215 -567 526 -786 775
-38 44 -78 89 -88 100 -16 17 -275 339 -310 385 -395 515 -776 1179 -1029
1790 -188 455 -358 1002 -449 1450 -27 135 -27 134 -24 140 2 3 54 4 117 3 62
-1 392 -4 733 -7z m10625 -33 c0 -13 -70 -219 -105 -308 -118 -300 -234 -524
-411 -790 -334 -505 -785 -906 -1313 -1170 -353 -177 -721 -285 -1161 -340
-208 -26 -365 -28 -1740 -29 l-1365 0 -1 1314 c-1 723 0 1317 1 1320 3 5 6095
9 6095 3z"/>
<path d="M3128 11733 c7 -3 16 -2 19 1 4 3 -2 6 -13 5 -11 0 -14 -3 -6 -6z"/>
</g>
</svg>
